<?xml version="1.0" encoding="utf-8"?>
<!-- Generator: Adobe Illustrator 21.0.0, SVG Export Plug-In . SVG Version: 6.00 Build 0)  -->
<svg version="1.1" id="Layer_1" xmlns="http://www.w3.org/2000/svg" xmlns:xlink="http://www.w3.org/1999/xlink" x="0px" y="0px"
	 viewBox="0 0 113.1 40" style="enable-background:new 0 0 113.1 40;" xml:space="preserve">
<style type="text/css">
	.st0{fill:#F67D4A;}
</style>
<title>afero-logo</title>
<path class="st0" d="M43.5,3.3c1,0,2,0.1,3,0.5V0.6c-1.1-0.5-2.2-0.7-3.4-0.6c-3,0-7.8,0.6-7.8,9.2v5.5H22.5v5.9H22
	c-1.3-3.9-5-6.5-9.2-6.5C5.2,14,0,20,0,27l0,0c0,7.1,5.2,13,12.8,12.9c4.1,0,7.9-2.6,9.2-6.5h0.4v5.9h3.4V27.1l0,0v-9.3h9.4v21.8
	h3.6V17.7h7.7v-3.1h-7.7V8.8C38.8,3.7,41.3,3.3,43.5,3.3z M21.8,27.4L21.8,27.4c0,5.2-3.6,9.4-9.2,9.4s-9-4.3-9-9.4l0,0
	c0-5.1,3.6-9.4,9-9.4S21.8,22.2,21.8,27.4z"/>
<path class="st0" d="M49.7,28.1c0.1,4.7,2.7,8.8,9,8.8c4.2,0,6.6-2,7.5-4.5H70c-0.8,4-5,7.6-11.2,7.6c-8.6,0-12.8-5.9-12.8-12.7
	c0-7.2,4.5-12.6,12.5-12.6c6.6,0,11.8,4.7,11.8,10.8c0,0.9,0,1.8-0.1,2.6L49.7,28.1L49.7,28.1z M49.8,25.2h16.8
	c0-4.7-3.6-7.8-8.2-7.8C53.3,17.4,50,20.4,49.8,25.2z"/>
<path class="st0" d="M87.5,18.4c-0.7-0.2-1.5-0.4-2.3-0.4c-5.9,0-8.6,4.8-8.6,10.5v10.7h-3.5V15.1h3.5v5.7c1.3-3.6,4.8-6.1,8.6-6
	c0.8,0,1.5,0.1,2.3,0.4L87.5,18.4z"/>
<path class="st0" d="M87.6,27.4c0-7,5.7-12.7,12.7-12.7s12.7,5.7,12.7,12.7c0.2,6.8-5.2,12.5-12.1,12.7c-0.2,0-0.5,0-0.7,0
	C92.7,40.1,87.6,34.2,87.6,27.4z M109.5,27.4c0-5.2-3.6-9.5-9.3-9.5s-9.1,4.3-9.1,9.5s3.6,9.4,9.1,9.4c5,0.1,9.2-3.8,9.3-8.9
	C109.5,27.7,109.5,27.5,109.5,27.4z"/>
</svg>
